HIERARCHY
ROOT hip
{
  OFFSET 0 0 0
  CHANNELS 6 Xposition Yposition Zposition Zrotation Yrotation Xrotation
  JOINT abdomen
  {
    OFFSET 0 20.6881 -0.73152
    CHANNELS 3 Zrotation Xrotation Yrotation
    JOINT chest
    {
      OFFSET 0 11.7043 -0.48768
      CHANNELS 3 Zrotation Xrotation Yrotation
      JOINT neck
      {
        OFFSET 0 22.1894 -2.19456
        CHANNELS 3 Zrotation Xrotation Yrotation
        JOINT head
        {
          OFFSET -0.24384 7.07133 1.2192
          CHANNELS 3 Zrotation Xrotation Yrotation
          JOINT leftEye
          {
            OFFSET 4.14528 8.04674 8.04672
            CHANNELS 3 Zrotation Xrotation Yrotation
            End Site
            {
              OFFSET 1 0 0
            }
          }
          JOINT rightEye
          {
            OFFSET -3.6576 8.04674 8.04672
            CHANNELS 3 Zrotation Xrotation Yrotation
            End Site
            {
              OFFSET 1 0 0
            }
          }
        }
      }
      JOINT rCollar
      {
        OFFSET -2.68224 19.2634 -4.8768
        CHANNELS 3 Zrotation Xrotation Yrotation
        JOINT rShldr
        {
          OFFSET -8.77824 -1.95073 1.46304
          CHANNELS 3 Zrotation Xrotation Yrotation
          JOINT rForeArm
          {
            OFFSET -28.1742 -1.7115 0.48768
            CHANNELS 3 Zrotation Xrotation Yrotation
            JOINT rHand
            {
              OFFSET -22.5879 0.773209 7.07136
              CHANNELS 3 Zrotation Xrotation Yrotation
              JOINT rThumb1
              {
                OFFSET -1.2192 -0.487915 3.41376
                CHANNELS 3 Zrotation Xrotation Yrotation
                JOINT rThumb2
                {
                  OFFSET -3.37035 -0.52449 3.41376
                  CHANNELS 3 Zrotation Xrotation Yrotation
                  End Site
                  {
                    OFFSET -1.78271 -1.18214 1.43049
                  }
                }
              }
              JOINT rIndex1
              {
                OFFSET -7.75947 0.938293 5.60832
                CHANNELS 3 Zrotation Xrotation Yrotation
                JOINT rIndex2
                {
                  OFFSET -2.54057 -0.884171 1.56538
                  CHANNELS 3 Zrotation Xrotation Yrotation
                  End Site
                  {
                    OFFSET -1.62519 -0.234802 1.16502
                  }
                }
              }
              JOINT rMid1
              {
                OFFSET -8.24714 1.18213 3.41376
                CHANNELS 3 Zrotation Xrotation Yrotation
                JOINT rMid2
                {
                  OFFSET -3.10165 -0.590103 1.0647
                  CHANNELS 3 Zrotation Xrotation Yrotation
                  End Site
                  {
                    OFFSET -2.48547 -0.328903 0.83742
                  }
                }
              }
              JOINT rRing1
              {
                OFFSET -8.82822 0.546677 1.51678
                CHANNELS 3 Zrotation Xrotation Yrotation
                JOINT rRing2
                {
                  OFFSET -2.60934 -0.819778 -0.0198488
                  CHANNELS 3 Zrotation Xrotation Yrotation
                  End Site
                  {
                    OFFSET -2.33842 -0.294052 0.168128
                  }
                }
              }
              JOINT rPinky1
              {
                OFFSET -8.27202 -0.0477905 -0.4584
                CHANNELS 3 Zrotation Xrotation Yrotation
                JOINT rPinky2
                {
                  OFFSET -1.82734 -0.647385 -0.700984
                  CHANNELS 3 Zrotation Xrotation Yrotation
                  End Site
                  {
                    OFFSET -1.69225 -0.51767 -0.607171
                  }
                }
              }
            }
          }
        }
      }
      JOINT lCollar
      {
        OFFSET 2.68224 19.2634 -4.8768
        CHANNELS 3 Zrotation Xrotation Yrotation
        JOINT lShldr
        {
          OFFSET 8.77824 -1.95073 1.46304
          CHANNELS 3 Zrotation Xrotation Yrotation
          JOINT lForeArm
          {
            OFFSET 28.1742 -1.7115 0.48768
            CHANNELS 3 Zrotation Xrotation Yrotation
            JOINT lHand
            {
              OFFSET 22.5879 0.773209 7.07136
              CHANNELS 3 Zrotation Xrotation Yrotation
              JOINT lThumb1
              {
                OFFSET 1.2192 -0.487915 3.41376
                CHANNELS 3 Zrotation Xrotation Yrotation
                JOINT lThumb2
                {
                  OFFSET 3.37035 -0.52449 3.41376
                  CHANNELS 3 Zrotation Xrotation Yrotation
                  End Site
                  {
                    OFFSET 1.78271 -1.18214 1.43049
                  }
                }
              }
              JOINT lIndex1
              {
                OFFSET 7.75947 0.938293 5.60832
                CHANNELS 3 Zrotation Xrotation Yrotation
                JOINT lIndex2
                {
                  OFFSET 2.54057 -0.884171 1.56538
                  CHANNELS 3 Zrotation Xrotation Yrotation
                  End Site
                  {
                    OFFSET 1.62519 -0.234802 1.16502
                  }
                }
              }
              JOINT lMid1
              {
                OFFSET 8.24714 1.18213 3.41376
                CHANNELS 3 Zrotation Xrotation Yrotation
                JOINT lMid2
                {
                  OFFSET 3.10165 -0.590103 1.0647
                  CHANNELS 3 Zrotation Xrotation Yrotation
                  End Site
                  {
                    OFFSET 2.48547 -0.328903 0.83742
                  }
                }
              }
              JOINT lRing1
              {
                OFFSET 8.82822 0.546677 1.51678
                CHANNELS 3 Zrotation Xrotation Yrotation
                JOINT lRing2
                {
                  OFFSET 2.60934 -0.819778 -0.0198488
                  CHANNELS 3 Zrotation Xrotation Yrotation
                  End Site
                  {
                    OFFSET 2.33842 -0.294052 0.168128
                  }
                }
              }
              JOINT lPinky1
              {
                OFFSET 8.27202 -0.0477905 -0.4584
                CHANNELS 3 Zrotation Xrotation Yrotation
                JOINT lPinky2
                {
                  OFFSET 1.82734 -0.647385 -0.700984
                  CHANNELS 3 Zrotation Xrotation Yrotation
                  End Site
                  {
                    OFFSET 1.69225 -0.51767 -0.607171
                  }
                }
              }
            }
          }
        }
      }
    }
  }
  JOINT rButtock
  {
    OFFSET -8.77824 4.35084 1.2192
    CHANNELS 3 Zrotation Xrotation Yrotation
    JOINT rThigh
    {
      OFFSET 0 -1.70687 -2.19456
      CHANNELS 3 Zrotation Xrotation Yrotation
      JOINT rShin
      {
        OFFSET 0 -36.8199 0.73152
        CHANNELS 3 Zrotation Xrotation Yrotation
        JOINT rFoot
        {
          OFFSET 0.73152 -45.1104 -5.12064
          CHANNELS 3 Zrotation Xrotation Yrotation
          End Site
          {
            OFFSET -1.1221 -3.69964 12.103
          }
        }
      }
    }
  }
  JOINT lButtock
  {
    OFFSET 8.77824 4.35084 1.2192
    CHANNELS 3 Zrotation Xrotation Yrotation
    JOINT lThigh
    {
      OFFSET 0 -1.70687 -2.19456
      CHANNELS 3 Zrotation Xrotation Yrotation
      JOINT lShin
      {
        OFFSET 0 -36.8199 0.73152
        CHANNELS 3 Zrotation Xrotation Yrotation
        JOINT lFoot
        {
          OFFSET -0.73152 -45.1104 -5.12064
          CHANNELS 3 Zrotation Xrotation Yrotation
          End Site
          {
            OFFSET 1.1221 -3.69964 12.103
          }
        }
      }
    }
  }
}
MOTION
Frames:	5
Frame Time:	0.00833333
29.944 54.857 109.31 -0.4632 -1.9318 7.1103 4.10753 -0.929275 -2.65726 0.280332 -5.29771 -0.615596 -3.31421 -2.7138 -0.764764 4.1107 6.05325 -0.694461 -0.0 0.0 0.0 -0.0 0.0 0.0 -3.71606e-16 -9.86825e-14 5.21561e-14 9.90693 8.83132 50.7492 -28.2442 -32.3528 71.0229 -0.207055 -12.8548 -1.83787 6.9059e-11 7.66807e-10 6.40389e-10 1.12487e-10 1.31515e-09 1.10797e-09 6.90553e-11 7.66792e-10 6.40367e-10 7.73091 5.47488 0.417314 6.9058e-11 7.66807e-10 6.40392e-10 2.90554 0.965183 0.102902 6.90646e-11 7.66807e-10 6.40395e-10 10.2786 0.731801 0.0259123 6.90578e-11 7.6681e-10 6.40396e-10 2.22167 -0.733487 -0.20892 -4.6392e-16 -9.86856e-14 5.18766e-14 -29.0903 10.4286 -45.8429 28.407 -34.4405 -74.4221 0.000862377 -0.823655 0.115765 -1.44785e-10 6.40281e-10 -5.24298e-10 -2.49358e-10 1.10536e-09 -9.0732e-10 -1.44795e-10 6.40283e-10 -5.24282e-10 -7.73091 5.47488 -0.417314 -1.44784e-10 6.40282e-10 -5.24296e-10 -2.90554 0.965183 -0.102902 -1.44789e-10 6.4028e-10 -5.24298e-10 -10.2786 0.731801 -0.0259123 -1.44783e-10 6.40277e-10 -5.24307e-10 -2.22167 -0.733487 0.20892 -2.03217e-16 0.0 -3.88251e-19 -17.6169 -47.5849 -23.7145 -6.88573 82.1252 7.1122 5.92224 -29.0024 11.2636 2.03217e-16 0.0 3.88251e-19 22.0657 -45.0684 22.2423 9.13105 84.4623 -10.3441 4.83613 -25.55 9.75111
29.9515 54.7939 109.287 -0.4619 -1.8789 7.0908 4.11226 -0.848116 -2.65824 0.296286 -5.29805 -0.614646 -3.3602 -2.706 -0.771747 4.16433 6.1184 -0.698398 -0.0 0.0 0.0 -0.0 0.0 0.0 -1.63104e-14 -1.99858e-13 5.59649e-14 10.0334 8.73994 50.6705 -28.2557 -32.4566 71.1901 -0.204926 -12.7898 -1.82827 3.48737e-10 1.98765e-09 1.2569e-09 5.87597e-10 3.41599e-09 2.17732e-09 3.48736e-10 1.98764e-09 1.25688e-09 7.73091 5.47488 0.417314 3.48736e-10 1.98765e-09 1.25691e-09 2.90554 0.965183 0.102902 3.48745e-10 1.98765e-09 1.25691e-09 10.2786 0.731801 0.0259123 3.48736e-10 1.98765e-09 1.25691e-09 2.22167 -0.733487 -0.20892 -1.63352e-14 -1.9986e-13 5.577e-14 -29.2784 10.3549 -45.8305 28.4105 -34.5245 -74.5603 0.000708527 -0.740754 0.104112 -7.92375e-11 1.31798e-09 -1.22578e-09 -1.33691e-10 2.27458e-09 -2.12119e-09 -7.92494e-11 1.31799e-09 -1.22576e-09 -7.73091 5.47488 -0.417314 -7.92352e-11 1.31799e-09 -1.22578e-09 -2.90554 0.965183 -0.102902 -7.92428e-11 1.31799e-09 -1.22578e-09 -10.2786 0.731801 -0.0259123 -7.92362e-11 1.31798e-09 -1.22579e-09 -2.22167 -0.733487 0.20892 -2.03217e-16 0.0 -3.88251e-19 -17.7454 -47.6102 -23.832 -7.00471 82.2391 7.22877 5.98243 -29.0735 11.3469 2.03217e-16 0.0 3.88251e-19 22.1178 -45.1295 22.2741 9.31947 84.5642 -10.5359 4.85005 -25.6108 9.76425
29.9581 54.7362 109.265 -0.4642 -1.8406 7.0759 4.11668 -0.779595 -2.64686 0.300668 -5.29993 -0.610858 -3.40229 -2.70455 -0.781771 4.23353 6.17669 -0.710043 -0.0 0.0 0.0 -0.0 0.0 0.0 -2.39089e-14 -2.25818e-13 5.3324e-14 10.1693 8.6696 50.5895 -28.2664 -32.5566 71.352 -0.202765 -12.7236 -1.81848 4.33258e-10 2.41495e-09 1.48611e-09 7.30509e-10 4.15086e-09 2.57476e-09 4.3326e-10 2.41494e-09 1.48609e-09 7.73091 5.47488 0.417314 4.33258e-10 2.41495e-09 1.48611e-09 2.90554 0.965183 0.102902 4.33268e-10 2.41495e-09 1.48612e-09 10.2786 0.731801 0.0259123 4.33259e-10 2.41495e-09 1.48611e-09 2.22167 -0.733487 -0.20892 -2.39003e-14 -2.2582e-13 5.31749e-14 -29.4511 10.2978 -45.8187 28.4133 -34.6009 -74.6865 0.000489422 -0.631692 0.0887821 -1.03047e-12 1.54634e-09 -1.52658e-09 2.57148e-12 2.66846e-09 -2.64176e-09 -1.04322e-12 1.54635e-09 -1.52656e-09 -7.73091 5.47488 -0.417314 -1.02747e-12 1.54635e-09 -1.52658e-09 -2.90554 0.965183 -0.102902 -1.03656e-12 1.54635e-09 -1.52658e-09 -10.2786 0.731801 -0.0259123 -1.02951e-12 1.54634e-09 -1.5266e-09 -2.22167 -0.733487 0.20892 -2.03217e-16 0.0 -3.88251e-19 -17.8608 -47.6475 -23.9421 -7.12507 82.3518 7.34759 6.02124 -29.1294 11.397 2.03217e-16 0.0 3.88251e-19 22.1722 -45.1863 22.3193 9.49854 84.6576 -10.7182 4.86745 -25.6682 9.78416
29.9643 54.6832 109.245 -0.4674 -1.8164 7.0687 4.12283 -0.72881 -2.61747 0.286801 -5.30273 -0.602997 -3.43846 -2.71021 -0.794783 4.32382 6.23226 -0.730487 -0.0 0.0 0.0 -0.0 0.0 0.0 -1.78167e-14 -1.26647e-13 4.1506e-14 10.3201 8.6257 50.5043 -28.2764 -32.6526 71.5076 -0.200522 -12.6547 -1.8083 1.89581e-10 1.53982e-09 1.09036e-09 3.14391e-10 2.64346e-09 1.88789e-09 1.89583e-10 1.53982e-09 1.09034e-09 7.73091 5.47488 0.417314 1.8958e-10 1.53982e-09 1.09036e-09 2.90554 0.965183 0.102902 1.8959e-10 1.53982e-09 1.09036e-09 10.2786 0.731801 0.0259123 1.89582e-10 1.53982e-09 1.09036e-09 2.22167 -0.733487 -0.20892 -1.78271e-14 -1.26649e-13 4.13429e-14 -29.6047 10.2601 -45.81 28.4157 -34.6675 -74.7966 0.000240159 -0.485833 0.0682806 1.10832e-10 1.04631e-09 -1.1931e-09 1.94992e-10 1.80545e-09 -2.06486e-09 1.1082e-10 1.04631e-09 -1.19308e-09 -7.73091 5.47488 -0.417314 1.10836e-10 1.04631e-09 -1.1931e-09 -2.90554 0.965183 -0.102902 1.10826e-10 1.04631e-09 -1.1931e-09 -10.2786 0.731801 -0.0259123 1.10834e-10 1.04631e-09 -1.19311e-09 -2.22167 -0.733487 0.20892 -2.03217e-16 0.0 -3.88251e-19 -17.9598 -47.701 -24.0462 -7.24756 82.4642 7.46979 6.02956 -29.1669 11.3987 2.03217e-16 0.0 3.88251e-19 22.2327 -45.2352 22.3851 9.65534 84.7374 -10.8783 4.89203 -25.7263 9.81642
29.9706 54.6345 109.225 -0.4697 -1.8048 7.07 4.13044 -0.691575 -2.5733 0.261472 -5.30432 -0.591592 -3.47377 -2.7209 -0.81114 4.43367 6.27707 -0.758351 -0.0 0.0 0.0 -0.0 0.0 0.0 -2.85684e-15 5.88594e-14 2.15588e-14 10.4802 8.60184 50.4163 -28.2857 -32.7443 71.6562 -0.198068 -12.5787 -1.79707 -2.79162e-10 -2.12774e-10 2.78838e-10 -4.85281e-10 -3.74705e-10 4.79616e-10 -2.79161e-10 -2.1277e-10 2.78812e-10 7.73091 5.47488 0.417314 -2.79164e-10 -2.12768e-10 2.78833e-10 2.90554 0.965183 0.102902 -2.79154e-10 -2.12768e-10 2.78835e-10 10.2786 0.731801 0.0259123 -2.7916e-10 -2.12767e-10 2.78839e-10 2.22167 -0.733487 -0.20892 -2.91742e-15 5.88583e-14 2.13476e-14 -29.7459 10.2392 -45.803 28.4176 -34.7264 -74.8938 5.67261e-05 -0.306699 0.0431034 2.62096e-10 4.45941e-11 -4.4184e-10 4.54222e-10 7.67137e-11 -7.65102e-10 2.62086e-10 4.45963e-11 -4.41819e-10 -7.73091 5.47488 -0.417314 2.62099e-10 4.4599e-11 -4.41836e-10 -2.90554 0.965183 -0.102902 2.6209e-10 4.45983e-11 -4.41835e-10 -10.2786 0.731801 -0.0259123 2.62098e-10 4.45959e-11 -4.41843e-10 -2.22167 -0.733487 0.20892 -2.03217e-16 0.0 -3.88251e-19 -18.0413 -47.7633 -24.1422 -7.36775 82.5721 7.59074 6.01314 -29.1952 11.3593 2.03217e-16 0.0 3.88251e-19 22.2989 -45.2747 22.467 9.78962 84.8043 -11.0157 4.92227 -25.7884 9.85728
